<svg xmlns="http://www.w3.org/2000/svg" width="260" height="112" viewBox="0 0 260 112">
    <g fill="none" fill-rule="evenodd">
        <path d="M-11-25h282v161H-11z"/>
        <path fill="#FF7000" d="M95.896 111.134L.27 55.567l14.767-3.819zM33.67 46.798l62.226 64.336-73.073-61.498z"/>
        <path fill="#FF4900" d="M.27 55.567L95.895 0l-3.29 12.197zM86.838 33.663L.271 55.567l90.148-35.193z"/>
        <path fill="#FFA400" d="M95.88 0l.016 111.134-10.578-10.938z"/>
        <path fill="#FFA400" d="M72.374 86.886L95.881 0 79.234 93.993z"/>
        <path fill="#000" fill-opacity=".33" d="M92.567 12.203l-.69.331L95.881 0l-3.314 12.203zm-2.234 8.227l-3.604 13.268-1.755.446 4.239-13.27 1.12-.444zM85.276 100.205l.099-.839 10.506 11.768-10.605-10.93zm-6.053-6.239l-6.849-7.06.422-1.63 6.638 7.436-.21 1.254zM15.095 51.79l.81.598L.32 55.64l14.775-3.851zm7.876-2.053l10.908-2.844 1.29 1.475-11.082 2.312-1.116-.943z"/>
        <g>
            <g fill="#344390">
                <path d="M115.414 56.844H110v-18.45h4.893c1.961 0 3.458.545 4.49 1.633 1.033 1.087 1.55 2.535 1.55 4.342v7.211c0 3.51-1.84 5.264-5.519 5.264zm3.644-5v-7.738c0-1.316-.377-2.294-1.132-2.935-.755-.64-1.679-.96-2.772-.96h-3.28v14.922h3.124c1.926 0 3.158-.517 3.696-1.553.243-.456.364-1.035.364-1.737zM137.9 43.527v8.448c0 1.772-.533 3.075-1.6 3.908-1.067.834-2.347 1.25-3.84 1.25-1.492 0-2.78-.416-3.865-1.25-1.084-.833-1.626-2.136-1.626-3.908v-8.474c0-1.808.49-3.176 1.47-4.106.98-.93 2.33-1.395 4.048-1.395s3.05.491 3.995 1.474c.946.982 1.419 2.333 1.419 4.053zm-1.873 8.238v-8.133c0-1.21-.308-2.132-.924-2.763-.616-.632-1.506-.948-2.668-.948-2.395 0-3.592 1.237-3.592 3.711v8.185c0 1.123.33 1.978.989 2.566.66.588 1.527.882 2.603.882 1.076 0 1.943-.294 2.603-.882.66-.588.989-1.46.989-2.618zM145.577 51.975c0 2.193 1.189 3.29 3.566 3.29h3.365v1.841l-3.625.001c-.278 0-.699-.026-1.263-.079-.564-.052-1.162-.25-1.796-.592-.633-.342-1.145-.886-1.535-1.632-.39-.745-.586-1.67-.586-2.776v-8.449c0-1.333.187-2.342.56-3.026.373-.684.941-1.263 1.705-1.737.78-.439 1.709-.658 2.785-.658.89 0 2.142.009 3.755.026V40h-3.105c-.728 0-1.34.075-1.835.224-.494.149-.95.491-1.366 1.026-.417.535-.625 1.233-.625 2.093v8.632zM165.513 56.844h-10.35l7.435-11.527c.607-.983.91-1.843.91-2.58 0-.86-.268-1.53-.806-2.013-.538-.483-1.132-.724-1.783-.724h-3.593v-1.816c1.704-.017 2.95-.026 3.736-.026 1.18 0 2.187.377 3.02 1.132.902.824 1.353 1.833 1.353 3.026 0 1.193-.382 2.439-1.145 3.737l-5.909 9.028h7.132v1.763zM175.844 56.844h-5.414v-18.45h4.894c1.96 0 3.457.545 4.49 1.633 1.032 1.087 1.548 2.535 1.548 4.342v7.211c0 3.51-1.839 5.264-5.518 5.264zm3.644-5v-7.738c0-1.316-.377-2.294-1.132-2.935-.755-.64-1.679-.96-2.772-.96h-3.28v14.922h3.124c1.926 0 3.158-.517 3.696-1.553.243-.456.364-1.035.364-1.737zM191.017 56.844h-1.874V40.21l-1.718-.053v-1.737h3.592zM207.777 56.844h-1.869l-.005-.816c-.833.72-1.978 1.08-3.436 1.08-1.457 0-2.72-.44-3.787-1.317-1.067-.877-1.6-2.184-1.6-3.921v-8.264c0-2.246.754-3.834 2.264-4.764.78-.438 1.71-.658 2.785-.658h3.696V40h-3.227c-2.43 0-3.645 1.123-3.645 3.369v8.553c0 1.07.33 1.89.99 2.461.659.57 1.51.856 2.55.856 1.042 0 1.879-.29 2.512-.869.634-.579.95-1.386.95-2.421V50.79h-2.264v-1.843h4.086v7.896zM216.99 56.844h-1.875V40.21l-1.718-.053v-1.737h3.592zM227.45 56.844h-1.873V40.21h-4.217v-1.79h10.464v1.79h-4.373zM245.304 56.844h-2.108l-1.796-5.948h-5.414l-1.718 5.948h-2.03l6.44-18.423 6.626 18.423zm-4.373-7.896l-2.264-5.897-2.187 5.897h4.451zM259.358 56.844h-9.397V38.42h1.874v16.712h7.523z"/>
            </g>
            <g fill="#344390">
                <path d="M218.003 64.929h.81v.714h.021c.222-.266.48-.473.774-.62.294-.147.618-.22.971-.22.381 0 .73.064 1.044.194.315.13.584.31.805.54.222.232.395.505.52.82.124.315.187.658.187 1.03 0 .37-.063.714-.187 1.029a2.54 2.54 0 0 1-.514.819 2.37 2.37 0 0 1-1.73.735 2.23 2.23 0 0 1-1.148-.289c-.329-.192-.57-.428-.722-.709h-.02v3.267h-.81v-7.31zm.81 2.457c0 .26.04.5.12.72a1.656 1.656 0 0 0 1.605 1.108 1.656 1.656 0 0 0 1.605-1.108c.08-.22.12-.46.12-.72 0-.259-.04-.498-.12-.719a1.656 1.656 0 0 0-1.605-1.108 1.656 1.656 0 0 0-1.605 1.108c-.08.22-.12.46-.12.72zM225.54 66.095c0-.224-.007-.435-.021-.63a7.656 7.656 0 0 1-.02-.536h.768c0 .133.003.266.01.399s.01.27.01.41h.021c.056-.12.134-.235.234-.347.1-.112.22-.212.359-.3a1.905 1.905 0 0 1 1.194-.278c.056.007.11.021.166.042l-.052.83a1.495 1.495 0 0 0-.436-.063c-.498 0-.86.163-1.085.488-.225.326-.338.772-.338 1.34v2.394h-.81v-3.75zM229.877 67.386a2.7 2.7 0 0 1 .197-1.05c.132-.315.312-.586.54-.814.229-.227.503-.404.821-.53.319-.126.665-.19 1.039-.19.374 0 .72.064 1.039.19.318.126.592.303.82.53.229.228.409.499.54.814a2.7 2.7 0 0 1 .198 1.05 2.7 2.7 0 0 1-.198 1.05 2.486 2.486 0 0 1-.54.815 2.397 2.397 0 0 1-.82.53c-.319.126-.665.19-1.04.19-.373 0-.72-.064-1.038-.19a2.397 2.397 0 0 1-.82-.53 2.486 2.486 0 0 1-.54-.814 2.7 2.7 0 0 1-.198-1.05zm.872 0c0 .26.04.5.12.72a1.656 1.656 0 0 0 1.605 1.108 1.656 1.656 0 0 0 1.605-1.108c.08-.22.12-.46.12-.72 0-.259-.04-.498-.12-.719a1.656 1.656 0 0 0-1.605-1.108 1.656 1.656 0 0 0-1.605 1.108c-.08.22-.12.46-.12.72zM240.935 66.158a1.645 1.645 0 0 0-.561-.457 1.541 1.541 0 0 0-.665-.142c-.27 0-.509.047-.717.142-.207.094-.379.226-.514.394a1.764 1.764 0 0 0-.306.582c-.07.221-.104.457-.104.71 0 .252.04.488.12.708.079.221.19.415.332.583a1.503 1.503 0 0 0 1.19.536c.532 0 .944-.203 1.235-.61l.603.579a2.114 2.114 0 0 1-.831.598c-.319.126-.655.19-1.008.19-.374 0-.717-.064-1.028-.19a2.223 2.223 0 0 1-.795-.535 2.47 2.47 0 0 1-.509-.82 2.874 2.874 0 0 1-.182-1.04c0-.37.06-.714.182-1.029a2.347 2.347 0 0 1 1.309-1.36c.308-.13.65-.194 1.023-.194.36 0 .701.063 1.023.189.322.126.605.322.847.588l-.644.578zM247.973 68.951c-.291.379-.61.643-.956.793a3 3 0 0 1-1.205.226c-.38 0-.723-.068-1.028-.205a2.317 2.317 0 0 1-.774-.551 2.423 2.423 0 0 1-.488-.82 2.935 2.935 0 0 1-.172-1.008c0-.378.063-.726.187-1.045a2.333 2.333 0 0 1 1.309-1.35c.305-.125.637-.188.997-.188.34 0 .651.057.935.173.284.116.528.284.733.504.204.22.361.49.472.809a3.3 3.3 0 0 1 .166 1.087v.263h-3.926c.014.21.064.41.15.603.087.193.2.361.338.505.139.143.301.257.488.341.187.084.392.126.613.126.353 0 .651-.063.894-.189.242-.126.46-.312.654-.557l.613.483zm-.696-2.006c-.014-.42-.149-.756-.405-1.008s-.61-.378-1.06-.378c-.45 0-.813.126-1.09.378-.277.252-.444.588-.5 1.008h3.055zM250.658 68.552c.16.203.335.364.525.483.19.12.431.179.722.179.125 0 .251-.014.38-.042.127-.028.243-.074.347-.137a.774.774 0 0 0 .25-.236.606.606 0 0 0 .093-.341.555.555 0 0 0-.088-.326.776.776 0 0 0-.234-.215 1.308 1.308 0 0 0-.333-.142 6.178 6.178 0 0 0-.384-.094 8.125 8.125 0 0 1-.654-.169 2.121 2.121 0 0 1-.546-.246 1.157 1.157 0 0 1-.374-.394c-.093-.161-.14-.368-.14-.62 0-.238.052-.448.156-.63.104-.182.242-.333.415-.452.174-.119.367-.21.582-.273a2.348 2.348 0 0 1 1.626.116c.294.14.524.367.69.682l-.675.452a1.262 1.262 0 0 0-.41-.425 1.123 1.123 0 0 0-.618-.163c-.11 0-.223.014-.338.042-.114.028-.216.07-.306.126a.732.732 0 0 0-.223.215.524.524 0 0 0-.089.3c0 .105.033.194.099.267a.872.872 0 0 0 .27.195c.114.056.246.105.395.147.149.042.303.077.462.105.215.042.42.096.613.163.194.066.364.155.509.267.145.112.26.253.343.42.083.169.124.375.124.62 0 .28-.055.518-.166.714-.11.197-.258.356-.441.478a1.926 1.926 0 0 1-.624.268 3.02 3.02 0 0 1-.711.084c-.416 0-.774-.065-1.075-.194-.301-.13-.573-.37-.816-.72l.644-.504zM256.232 68.552c.159.203.334.364.524.483.19.12.431.179.722.179.125 0 .251-.014.38-.042.127-.028.243-.074.347-.137a.774.774 0 0 0 .25-.236.606.606 0 0 0 .093-.341.555.555 0 0 0-.088-.326.776.776 0 0 0-.234-.215 1.308 1.308 0 0 0-.332-.142 6.178 6.178 0 0 0-.385-.094 8.125 8.125 0 0 1-.654-.169 2.121 2.121 0 0 1-.545-.246 1.157 1.157 0 0 1-.374-.394c-.094-.161-.14-.368-.14-.62 0-.238.051-.448.155-.63.104-.182.243-.333.416-.452s.367-.21.581-.273a2.348 2.348 0 0 1 1.626.116c.294.14.525.367.69.682l-.674.452a1.262 1.262 0 0 0-.41-.425 1.123 1.123 0 0 0-.619-.163c-.11 0-.223.014-.337.042-.115.028-.217.07-.307.126a.732.732 0 0 0-.223.215.524.524 0 0 0-.088.3c0 .105.033.194.098.267a.872.872 0 0 0 .27.195c.115.056.246.105.395.147.149.042.303.077.462.105.215.042.42.096.613.163.194.066.364.155.51.267.145.112.259.253.342.42.083.169.125.375.125.62 0 .28-.056.518-.166.714-.111.197-.258.356-.442.478a1.926 1.926 0 0 1-.623.268 3.02 3.02 0 0 1-.712.084c-.415 0-.774-.065-1.075-.194-.301-.13-.573-.37-.815-.72l.644-.504zM113.74 66.147a1.645 1.645 0 0 0-.561-.457 1.541 1.541 0 0 0-.665-.142c-.27 0-.51.047-.717.142-.208.094-.38.226-.514.394a1.764 1.764 0 0 0-.307.583c-.069.22-.103.456-.103.708 0 .253.04.489.119.71.08.22.19.414.332.582a1.503 1.503 0 0 0 1.19.536c.533 0 .945-.203 1.236-.61l.602.579a2.114 2.114 0 0 1-.83.598c-.32.126-.655.19-1.008.19-.374 0-.717-.064-1.029-.19a2.223 2.223 0 0 1-.794-.535 2.47 2.47 0 0 1-.51-.82 2.874 2.874 0 0 1-.181-1.04c0-.37.06-.714.182-1.029a2.347 2.347 0 0 1 1.309-1.36c.308-.13.649-.194 1.023-.194.36 0 .701.063 1.023.189.322.126.604.322.847.588l-.644.578zM116.373 65.548c.25-.26.546-.45.888-.572a3.08 3.08 0 0 1 1.044-.184c.72 0 1.24.171 1.558.514.319.343.478.865.478 1.565v2.111a5.868 5.868 0 0 0 .073.85l-.78.001a1.739 1.739 0 0 1-.046-.373 14.48 14.48 0 0 1-.005-.362h-.02c-.16.252-.373.459-.64.62-.266.16-.587.241-.96.241-.25 0-.484-.031-.702-.094a1.744 1.744 0 0 1-.571-.279 1.32 1.32 0 0 1-.535-1.087c0-.406.104-.724.312-.955a1.89 1.89 0 0 1 .774-.515 3.77 3.77 0 0 1 .997-.21c.356-.028.684-.042.981-.042h.312v-.147c0-.357-.106-.627-.317-.809-.211-.182-.507-.273-.888-.273a2.35 2.35 0 0 0-.774.131 1.854 1.854 0 0 0-.67.405l-.509-.536zm2.348 1.922c-.52 0-.932.074-1.236.22a.75.75 0 0 0-.457.725c0 .308.102.527.306.657.204.13.459.194.764.194.235 0 .441-.04.618-.12a1.3 1.3 0 0 0 .711-.788c.062-.179.097-.37.104-.573v-.315h-.81zM122.933 64.918h.81v.714h.021c.222-.266.48-.473.774-.62.295-.147.618-.22.971-.22.381 0 .73.064 1.044.194.316.13.584.31.805.54.222.232.395.505.52.82.124.315.187.658.187 1.03 0 .37-.063.714-.187 1.029a2.54 2.54 0 0 1-.514.819 2.37 2.37 0 0 1-1.73.735 2.23 2.23 0 0 1-1.148-.289c-.329-.192-.57-.428-.722-.709h-.02v3.267h-.81v-7.31zm.81 2.457c0 .26.04.5.12.72a1.656 1.656 0 0 0 1.605 1.108 1.656 1.656 0 0 0 1.605-1.108c.08-.22.12-.46.12-.72 0-.259-.04-.498-.12-.719a1.656 1.656 0 0 0-1.605-1.108 1.656 1.656 0 0 0-1.605 1.108c-.08.22-.12.46-.12.72zM133.13 65.611h-1.434v2.458c0 .16.003.31.01.446a.933.933 0 0 0 .083.357.563.563 0 0 0 .218.242c.097.06.236.089.416.089a1.656 1.656 0 0 0 .717-.168l.03.746a1.832 1.832 0 0 1-.462.136 2.97 2.97 0 0 1-.483.042c-.29 0-.522-.038-.696-.115a.947.947 0 0 1-.405-.326 1.22 1.22 0 0 1-.192-.52 4.633 4.633 0 0 1-.047-.688v-2.699h-1.06v-.693h1.06V63.52h.81v1.397h1.434v.693zM139.513 68.667c0 .224.007.435.02.63.014.197.021.375.021.536h-.768c0-.133-.004-.266-.01-.399a7.882 7.882 0 0 1-.011-.41h-.021a1.419 1.419 0 0 1-.234.347c-.1.112-.22.212-.358.3a1.905 1.905 0 0 1-1.029.288c-.318 0-.593-.049-.825-.147a1.55 1.55 0 0 1-.577-.41 1.665 1.665 0 0 1-.337-.635 2.89 2.89 0 0 1-.11-.814v-3.035h.81v2.951c0 .413.09.739.27.977.18.238.461.357.842.357.263 0 .49-.045.68-.136.191-.092.347-.221.468-.39.121-.167.211-.367.27-.598.059-.23.088-.486.088-.767v-2.394h.81v3.75zM142.198 66.084c0-.224-.007-.435-.02-.63a7.657 7.657 0 0 1-.021-.536h.768c0 .133.004.266.01.399.008.133.011.27.011.41h.02c.056-.12.134-.235.235-.347.1-.112.22-.212.358-.3a1.905 1.905 0 0 1 1.195-.278c.055.007.11.021.166.042l-.052.83a1.495 1.495 0 0 0-.436-.063c-.5 0-.86.163-1.086.488-.225.326-.338.772-.338 1.34v2.394h-.81v-3.75zM151.345 68.94c-.291.379-.61.643-.956.793a3 3 0 0 1-1.205.226c-.38 0-.723-.068-1.028-.205a2.317 2.317 0 0 1-.774-.551 2.423 2.423 0 0 1-.488-.82 2.935 2.935 0 0 1-.172-1.008c0-.378.063-.726.187-1.045a2.333 2.333 0 0 1 1.309-1.35c.305-.125.637-.188.997-.188.34 0 .651.057.935.173.284.116.528.284.733.504.204.22.361.49.472.809a3.3 3.3 0 0 1 .166 1.087v.263h-3.926c.014.21.064.41.15.603.087.193.2.361.338.505.139.143.301.257.488.341.187.084.392.126.613.126.353 0 .651-.063.894-.189.242-.126.46-.312.654-.557l.613.483zm-.696-2.006c-.014-.42-.149-.756-.405-1.008s-.61-.378-1.06-.378c-.45 0-.814.126-1.09.378-.278.252-.444.588-.5 1.008h3.055zM154.471 66.868h1.183v1.276h-1.183zM156.837 66.868h1.183v1.276h-1.183zM211.262 66.868h1.183v1.276h-1.183zM213.628 66.868h1.183v1.276h-1.183zM160.076 68.541c.16.203.334.364.525.483.19.12.431.179.722.179.125 0 .25-.014.379-.042.128-.028.244-.073.348-.137a.774.774 0 0 0 .25-.236.606.606 0 0 0 .093-.341.555.555 0 0 0-.088-.326.776.776 0 0 0-.234-.215 1.308 1.308 0 0 0-.333-.142 6.178 6.178 0 0 0-.384-.094 8.125 8.125 0 0 1-.654-.168 2.121 2.121 0 0 1-.546-.247 1.157 1.157 0 0 1-.374-.394c-.093-.161-.14-.368-.14-.62 0-.238.052-.448.156-.63.104-.182.242-.333.415-.452.174-.119.367-.21.582-.273a2.348 2.348 0 0 1 1.626.116c.294.14.524.367.69.682l-.675.452a1.262 1.262 0 0 0-.41-.425 1.123 1.123 0 0 0-.618-.163c-.11 0-.223.014-.338.042-.114.028-.216.07-.306.126a.732.732 0 0 0-.223.215.524.524 0 0 0-.089.3c0 .105.033.194.099.267a.872.872 0 0 0 .27.195c.114.056.246.105.395.147.149.042.303.077.462.105.215.042.419.096.613.163.194.066.364.155.509.267.145.113.26.253.343.42.083.169.124.375.124.62 0 .28-.055.518-.166.715-.11.196-.258.355-.441.477a1.926 1.926 0 0 1-.624.268 3.02 3.02 0 0 1-.711.084c-.416 0-.774-.064-1.075-.194-.301-.13-.573-.37-.816-.72l.644-.504zM168.205 65.611h-1.433v2.458c0 .16.003.31.01.446a.933.933 0 0 0 .083.357.563.563 0 0 0 .218.242c.097.06.236.089.416.089a1.656 1.656 0 0 0 .716-.168l.032.746a1.832 1.832 0 0 1-.463.136 2.97 2.97 0 0 1-.483.042c-.29 0-.523-.038-.696-.115a.947.947 0 0 1-.405-.326 1.22 1.22 0 0 1-.192-.52 4.633 4.633 0 0 1-.047-.688v-2.699h-1.06v-.693h1.06V63.52h.81v1.397h1.434v.693zM170.35 66.084c0-.224-.007-.435-.02-.63a7.657 7.657 0 0 1-.021-.536h.769c0 .133.003.266.01.399s.01.27.01.41h.021c.055-.12.133-.235.234-.347.1-.112.22-.212.358-.3a1.905 1.905 0 0 1 1.195-.278c.055.007.11.021.166.042l-.052.83a1.495 1.495 0 0 0-.436-.063c-.499 0-.86.163-1.086.488-.225.326-.337.772-.337 1.34v2.394h-.81v-3.75zM179.393 68.667c0 .224.007.435.021.63.014.197.02.375.02.536h-.768c0-.133-.003-.266-.01-.399a7.882 7.882 0 0 1-.01-.41h-.022a1.419 1.419 0 0 1-.233.347c-.1.112-.22.212-.359.3a1.905 1.905 0 0 1-1.028.288c-.319 0-.594-.049-.826-.147a1.55 1.55 0 0 1-.576-.41 1.665 1.665 0 0 1-.338-.635 2.89 2.89 0 0 1-.109-.814v-3.035h.81v2.951c0 .413.09.739.27.977.18.238.46.357.842.357.263 0 .49-.045.68-.136.19-.092.346-.221.468-.39.12-.167.21-.367.27-.598.058-.23.088-.486.088-.767v-2.394h.81v3.75zM185.538 66.147a1.645 1.645 0 0 0-.561-.457 1.541 1.541 0 0 0-.665-.142c-.27 0-.509.047-.717.142-.207.094-.379.226-.514.394a1.764 1.764 0 0 0-.306.583c-.07.22-.104.456-.104.708 0 .253.04.489.12.71.079.22.19.414.332.582a1.503 1.503 0 0 0 1.189.536c.533 0 .945-.203 1.236-.61l.603.579a2.114 2.114 0 0 1-.831.598c-.319.126-.655.19-1.008.19-.374 0-.717-.064-1.028-.19a2.223 2.223 0 0 1-.795-.535 2.47 2.47 0 0 1-.509-.82 2.874 2.874 0 0 1-.182-1.04c0-.37.06-.714.182-1.029a2.347 2.347 0 0 1 1.309-1.36c.308-.13.65-.194 1.023-.194.36 0 .701.063 1.023.189.322.126.604.322.847.588l-.644.578zM190.893 65.611h-1.434v2.458c0 .16.004.31.01.446a.933.933 0 0 0 .084.357.563.563 0 0 0 .218.242c.097.06.236.089.416.089a1.656 1.656 0 0 0 .716-.168l.032.746a1.832 1.832 0 0 1-.463.136 2.97 2.97 0 0 1-.483.042c-.29 0-.523-.038-.696-.115a.947.947 0 0 1-.405-.326 1.22 1.22 0 0 1-.192-.52 4.633 4.633 0 0 1-.047-.688v-2.699h-1.06v-.693h1.06V63.52h.81v1.397h1.434v.693zM197.276 68.667c0 .224.007.435.021.63.014.197.021.375.021.536h-.769c0-.133-.003-.266-.01-.399a7.882 7.882 0 0 1-.01-.41h-.021a1.419 1.419 0 0 1-.234.347c-.1.112-.22.212-.358.3a1.905 1.905 0 0 1-1.029.288c-.318 0-.594-.049-.826-.147a1.55 1.55 0 0 1-.576-.41 1.665 1.665 0 0 1-.338-.635 2.89 2.89 0 0 1-.109-.814v-3.035h.81v2.951c0 .413.09.739.27.977.18.238.461.357.842.357.263 0 .49-.045.68-.136.19-.092.347-.221.468-.39.121-.167.211-.367.27-.598.059-.23.088-.486.088-.767v-2.394h.81v3.75zM199.962 66.084c0-.224-.007-.435-.02-.63a7.657 7.657 0 0 1-.022-.536h.77c0 .133.003.266.01.399.006.133.01.27.01.41h.02c.056-.12.134-.235.234-.347.1-.112.22-.212.359-.3a1.905 1.905 0 0 1 1.194-.278c.056.007.111.021.167.042l-.052.83a1.495 1.495 0 0 0-.437-.063c-.498 0-.86.163-1.085.488-.225.326-.338.772-.338 1.34v2.394h-.81v-3.75zM209.109 68.94c-.291.379-.61.643-.956.793a3 3 0 0 1-1.205.226c-.38 0-.724-.068-1.028-.205a2.317 2.317 0 0 1-.774-.551 2.423 2.423 0 0 1-.488-.82 2.935 2.935 0 0 1-.172-1.008c0-.378.062-.726.187-1.045a2.333 2.333 0 0 1 1.309-1.35c.305-.125.637-.188.997-.188.34 0 .651.057.935.173.284.116.528.284.732.504.205.22.362.49.473.809a3.3 3.3 0 0 1 .166 1.087v.263h-3.926c.014.21.064.41.15.603.087.193.2.361.338.505.138.143.301.257.488.341.187.084.391.126.613.126.353 0 .651-.063.893-.189.243-.126.46-.312.655-.557l.613.483zm-.696-2.006c-.014-.42-.15-.756-.405-1.008-.257-.252-.61-.378-1.06-.378-.45 0-.814.126-1.09.378-.278.252-.444.588-.5 1.008h3.055z"/>
            </g>
            <g fill="#5CC5EF">
                <path d="M218.003 64.929h.81v.714h.021c.222-.266.48-.473.774-.62.294-.147.618-.22.971-.22.381 0 .73.064 1.044.194.315.13.584.31.805.54.222.232.395.505.52.82.124.315.187.658.187 1.03 0 .37-.063.714-.187 1.029a2.54 2.54 0 0 1-.514.819 2.37 2.37 0 0 1-1.73.735 2.23 2.23 0 0 1-1.148-.289c-.329-.192-.57-.428-.722-.709h-.02v3.267h-.81v-7.31zm.81 2.457c0 .26.04.5.12.72a1.656 1.656 0 0 0 1.605 1.108 1.656 1.656 0 0 0 1.605-1.108c.08-.22.12-.46.12-.72 0-.259-.04-.498-.12-.719a1.656 1.656 0 0 0-1.605-1.108 1.656 1.656 0 0 0-1.605 1.108c-.08.22-.12.46-.12.72zM225.54 66.095c0-.224-.007-.435-.021-.63a7.656 7.656 0 0 1-.02-.536h.768c0 .133.003.266.01.399s.01.27.01.41h.021c.056-.12.134-.235.234-.347.1-.112.22-.212.359-.3a1.905 1.905 0 0 1 1.194-.278c.056.007.11.021.166.042l-.052.83a1.495 1.495 0 0 0-.436-.063c-.498 0-.86.163-1.085.488-.225.326-.338.772-.338 1.34v2.394h-.81v-3.75zM229.877 67.386a2.7 2.7 0 0 1 .197-1.05c.132-.315.312-.586.54-.814.229-.227.503-.404.821-.53.319-.126.665-.19 1.039-.19.374 0 .72.064 1.039.19.318.126.592.303.82.53.229.228.409.499.54.814a2.7 2.7 0 0 1 .198 1.05 2.7 2.7 0 0 1-.198 1.05 2.486 2.486 0 0 1-.54.815 2.397 2.397 0 0 1-.82.53c-.319.126-.665.19-1.04.19-.373 0-.72-.064-1.038-.19a2.397 2.397 0 0 1-.82-.53 2.486 2.486 0 0 1-.54-.814 2.7 2.7 0 0 1-.198-1.05zm.872 0c0 .26.04.5.12.72a1.656 1.656 0 0 0 1.605 1.108 1.656 1.656 0 0 0 1.605-1.108c.08-.22.12-.46.12-.72 0-.259-.04-.498-.12-.719a1.656 1.656 0 0 0-1.605-1.108 1.656 1.656 0 0 0-1.605 1.108c-.08.22-.12.46-.12.72zM240.935 66.158a1.645 1.645 0 0 0-.561-.457 1.541 1.541 0 0 0-.665-.142c-.27 0-.509.047-.717.142-.207.094-.379.226-.514.394a1.764 1.764 0 0 0-.306.582c-.07.221-.104.457-.104.71 0 .252.04.488.12.708.079.221.19.415.332.583a1.503 1.503 0 0 0 1.19.536c.532 0 .944-.203 1.235-.61l.603.579a2.114 2.114 0 0 1-.831.598c-.319.126-.655.19-1.008.19-.374 0-.717-.064-1.028-.19a2.223 2.223 0 0 1-.795-.535 2.47 2.47 0 0 1-.509-.82 2.874 2.874 0 0 1-.182-1.04c0-.37.06-.714.182-1.029a2.347 2.347 0 0 1 1.309-1.36c.308-.13.65-.194 1.023-.194.36 0 .701.063 1.023.189.322.126.605.322.847.588l-.644.578zM247.973 68.951c-.291.379-.61.643-.956.793a3 3 0 0 1-1.205.226c-.38 0-.723-.068-1.028-.205a2.317 2.317 0 0 1-.774-.551 2.423 2.423 0 0 1-.488-.82 2.935 2.935 0 0 1-.172-1.008c0-.378.063-.726.187-1.045a2.333 2.333 0 0 1 1.309-1.35c.305-.125.637-.188.997-.188.34 0 .651.057.935.173.284.116.528.284.733.504.204.22.361.49.472.809a3.3 3.3 0 0 1 .166 1.087v.263h-3.926c.014.21.064.41.15.603.087.193.2.361.338.505.139.143.301.257.488.341.187.084.392.126.613.126.353 0 .651-.063.894-.189.242-.126.46-.312.654-.557l.613.483zm-.696-2.006c-.014-.42-.149-.756-.405-1.008s-.61-.378-1.06-.378c-.45 0-.813.126-1.09.378-.277.252-.444.588-.5 1.008h3.055zM250.658 68.552c.16.203.335.364.525.483.19.12.431.179.722.179.125 0 .251-.014.38-.042.127-.028.243-.074.347-.137a.774.774 0 0 0 .25-.236.606.606 0 0 0 .093-.341.555.555 0 0 0-.088-.326.776.776 0 0 0-.234-.215 1.308 1.308 0 0 0-.333-.142 6.178 6.178 0 0 0-.384-.094 8.125 8.125 0 0 1-.654-.169 2.121 2.121 0 0 1-.546-.246 1.157 1.157 0 0 1-.374-.394c-.093-.161-.14-.368-.14-.62 0-.238.052-.448.156-.63.104-.182.242-.333.415-.452.174-.119.367-.21.582-.273a2.348 2.348 0 0 1 1.626.116c.294.14.524.367.69.682l-.675.452a1.262 1.262 0 0 0-.41-.425 1.123 1.123 0 0 0-.618-.163c-.11 0-.223.014-.338.042-.114.028-.216.07-.306.126a.732.732 0 0 0-.223.215.524.524 0 0 0-.089.3c0 .105.033.194.099.267a.872.872 0 0 0 .27.195c.114.056.246.105.395.147.149.042.303.077.462.105.215.042.42.096.613.163.194.066.364.155.509.267.145.112.26.253.343.42.083.169.124.375.124.62 0 .28-.055.518-.166.714-.11.197-.258.356-.441.478a1.926 1.926 0 0 1-.624.268 3.02 3.02 0 0 1-.711.084c-.416 0-.774-.065-1.075-.194-.301-.13-.573-.37-.816-.72l.644-.504zM256.232 68.552c.159.203.334.364.524.483.19.12.431.179.722.179.125 0 .251-.014.38-.042.127-.028.243-.074.347-.137a.774.774 0 0 0 .25-.236.606.606 0 0 0 .093-.341.555.555 0 0 0-.088-.326.776.776 0 0 0-.234-.215 1.308 1.308 0 0 0-.332-.142 6.178 6.178 0 0 0-.385-.094 8.125 8.125 0 0 1-.654-.169 2.121 2.121 0 0 1-.545-.246 1.157 1.157 0 0 1-.374-.394c-.094-.161-.14-.368-.14-.62 0-.238.051-.448.155-.63.104-.182.243-.333.416-.452s.367-.21.581-.273a2.348 2.348 0 0 1 1.626.116c.294.14.525.367.69.682l-.674.452a1.262 1.262 0 0 0-.41-.425 1.123 1.123 0 0 0-.619-.163c-.11 0-.223.014-.337.042-.115.028-.217.07-.307.126a.732.732 0 0 0-.223.215.524.524 0 0 0-.088.3c0 .105.033.194.098.267a.872.872 0 0 0 .27.195c.115.056.246.105.395.147.149.042.303.077.462.105.215.042.42.096.613.163.194.066.364.155.51.267.145.112.259.253.342.42.083.169.125.375.125.62 0 .28-.056.518-.166.714-.111.197-.258.356-.442.478a1.926 1.926 0 0 1-.623.268 3.02 3.02 0 0 1-.712.084c-.415 0-.774-.065-1.075-.194-.301-.13-.573-.37-.815-.72l.644-.504zM113.74 66.147a1.645 1.645 0 0 0-.561-.457 1.541 1.541 0 0 0-.665-.142c-.27 0-.51.047-.717.142-.208.094-.38.226-.514.394a1.764 1.764 0 0 0-.307.583c-.069.22-.103.456-.103.708 0 .253.04.489.119.71.08.22.19.414.332.582a1.503 1.503 0 0 0 1.19.536c.533 0 .945-.203 1.236-.61l.602.579a2.114 2.114 0 0 1-.83.598c-.32.126-.655.19-1.008.19-.374 0-.717-.064-1.029-.19a2.223 2.223 0 0 1-.794-.535 2.47 2.47 0 0 1-.51-.82 2.874 2.874 0 0 1-.181-1.04c0-.37.06-.714.182-1.029a2.347 2.347 0 0 1 1.309-1.36c.308-.13.649-.194 1.023-.194.36 0 .701.063 1.023.189.322.126.604.322.847.588l-.644.578zM116.373 65.548c.25-.26.546-.45.888-.572a3.08 3.08 0 0 1 1.044-.184c.72 0 1.24.171 1.558.514.319.343.478.865.478 1.565v2.111a5.868 5.868 0 0 0 .073.85l-.78.001a1.739 1.739 0 0 1-.046-.373 14.48 14.48 0 0 1-.005-.362h-.02c-.16.252-.373.459-.64.62-.266.16-.587.241-.96.241-.25 0-.484-.031-.702-.094a1.744 1.744 0 0 1-.571-.279 1.32 1.32 0 0 1-.535-1.087c0-.406.104-.724.312-.955a1.89 1.89 0 0 1 .774-.515 3.77 3.77 0 0 1 .997-.21c.356-.028.684-.042.981-.042h.312v-.147c0-.357-.106-.627-.317-.809-.211-.182-.507-.273-.888-.273a2.35 2.35 0 0 0-.774.131 1.854 1.854 0 0 0-.67.405l-.509-.536zm2.348 1.922c-.52 0-.932.074-1.236.22a.75.75 0 0 0-.457.725c0 .308.102.527.306.657.204.13.459.194.764.194.235 0 .441-.04.618-.12a1.3 1.3 0 0 0 .711-.788c.062-.179.097-.37.104-.573v-.315h-.81zM122.933 64.918h.81v.714h.021c.222-.266.48-.473.774-.62.295-.147.618-.22.971-.22.381 0 .73.064 1.044.194.316.13.584.31.805.54.222.232.395.505.52.82.124.315.187.658.187 1.03 0 .37-.063.714-.187 1.029a2.54 2.54 0 0 1-.514.819 2.37 2.37 0 0 1-1.73.735 2.23 2.23 0 0 1-1.148-.289c-.329-.192-.57-.428-.722-.709h-.02v3.267h-.81v-7.31zm.81 2.457c0 .26.04.5.12.72a1.656 1.656 0 0 0 1.605 1.108 1.656 1.656 0 0 0 1.605-1.108c.08-.22.12-.46.12-.72 0-.259-.04-.498-.12-.719a1.656 1.656 0 0 0-1.605-1.108 1.656 1.656 0 0 0-1.605 1.108c-.08.22-.12.46-.12.72zM133.13 65.611h-1.434v2.458c0 .16.003.31.01.446a.933.933 0 0 0 .083.357.563.563 0 0 0 .218.242c.097.06.236.089.416.089a1.656 1.656 0 0 0 .717-.168l.03.746a1.832 1.832 0 0 1-.462.136 2.97 2.97 0 0 1-.483.042c-.29 0-.522-.038-.696-.115a.947.947 0 0 1-.405-.326 1.22 1.22 0 0 1-.192-.52 4.633 4.633 0 0 1-.047-.688v-2.699h-1.06v-.693h1.06V63.52h.81v1.397h1.434v.693zM139.513 68.667c0 .224.007.435.02.63.014.197.021.375.021.536h-.768c0-.133-.004-.266-.01-.399a7.882 7.882 0 0 1-.011-.41h-.021a1.419 1.419 0 0 1-.234.347c-.1.112-.22.212-.358.3a1.905 1.905 0 0 1-1.029.288c-.318 0-.593-.049-.825-.147a1.55 1.55 0 0 1-.577-.41 1.665 1.665 0 0 1-.337-.635 2.89 2.89 0 0 1-.11-.814v-3.035h.81v2.951c0 .413.09.739.27.977.18.238.461.357.842.357.263 0 .49-.045.68-.136.191-.092.347-.221.468-.39.121-.167.211-.367.27-.598.059-.23.088-.486.088-.767v-2.394h.81v3.75zM142.198 66.084c0-.224-.007-.435-.02-.63a7.657 7.657 0 0 1-.021-.536h.768c0 .133.004.266.01.399.008.133.011.27.011.41h.02c.056-.12.134-.235.235-.347.1-.112.22-.212.358-.3a1.905 1.905 0 0 1 1.195-.278c.055.007.11.021.166.042l-.052.83a1.495 1.495 0 0 0-.436-.063c-.5 0-.86.163-1.086.488-.225.326-.338.772-.338 1.34v2.394h-.81v-3.75zM151.345 68.94c-.291.379-.61.643-.956.793a3 3 0 0 1-1.205.226c-.38 0-.723-.068-1.028-.205a2.317 2.317 0 0 1-.774-.551 2.423 2.423 0 0 1-.488-.82 2.935 2.935 0 0 1-.172-1.008c0-.378.063-.726.187-1.045a2.333 2.333 0 0 1 1.309-1.35c.305-.125.637-.188.997-.188.34 0 .651.057.935.173.284.116.528.284.733.504.204.22.361.49.472.809a3.3 3.3 0 0 1 .166 1.087v.263h-3.926c.014.21.064.41.15.603.087.193.2.361.338.505.139.143.301.257.488.341.187.084.392.126.613.126.353 0 .651-.063.894-.189.242-.126.46-.312.654-.557l.613.483zm-.696-2.006c-.014-.42-.149-.756-.405-1.008s-.61-.378-1.06-.378c-.45 0-.814.126-1.09.378-.278.252-.444.588-.5 1.008h3.055zM154.471 66.868h1.183v1.276h-1.183zM156.837 66.868h1.183v1.276h-1.183zM211.262 66.868h1.183v1.276h-1.183zM213.628 66.868h1.183v1.276h-1.183zM160.076 68.541c.16.203.334.364.525.483.19.12.431.179.722.179.125 0 .25-.014.379-.042.128-.028.244-.073.348-.137a.774.774 0 0 0 .25-.236.606.606 0 0 0 .093-.341.555.555 0 0 0-.088-.326.776.776 0 0 0-.234-.215 1.308 1.308 0 0 0-.333-.142 6.178 6.178 0 0 0-.384-.094 8.125 8.125 0 0 1-.654-.168 2.121 2.121 0 0 1-.546-.247 1.157 1.157 0 0 1-.374-.394c-.093-.161-.14-.368-.14-.62 0-.238.052-.448.156-.63.104-.182.242-.333.415-.452.174-.119.367-.21.582-.273a2.348 2.348 0 0 1 1.626.116c.294.14.524.367.69.682l-.675.452a1.262 1.262 0 0 0-.41-.425 1.123 1.123 0 0 0-.618-.163c-.11 0-.223.014-.338.042-.114.028-.216.07-.306.126a.732.732 0 0 0-.223.215.524.524 0 0 0-.089.3c0 .105.033.194.099.267a.872.872 0 0 0 .27.195c.114.056.246.105.395.147.149.042.303.077.462.105.215.042.419.096.613.163.194.066.364.155.509.267.145.113.26.253.343.42.083.169.124.375.124.62 0 .28-.055.518-.166.715-.11.196-.258.355-.441.477a1.926 1.926 0 0 1-.624.268 3.02 3.02 0 0 1-.711.084c-.416 0-.774-.064-1.075-.194-.301-.13-.573-.37-.816-.72l.644-.504zM168.205 65.611h-1.433v2.458c0 .16.003.31.01.446a.933.933 0 0 0 .083.357.563.563 0 0 0 .218.242c.097.06.236.089.416.089a1.656 1.656 0 0 0 .716-.168l.032.746a1.832 1.832 0 0 1-.463.136 2.97 2.97 0 0 1-.483.042c-.29 0-.523-.038-.696-.115a.947.947 0 0 1-.405-.326 1.22 1.22 0 0 1-.192-.52 4.633 4.633 0 0 1-.047-.688v-2.699h-1.06v-.693h1.06V63.52h.81v1.397h1.434v.693zM170.35 66.084c0-.224-.007-.435-.02-.63a7.657 7.657 0 0 1-.021-.536h.769c0 .133.003.266.01.399s.01.27.01.41h.021c.055-.12.133-.235.234-.347.1-.112.22-.212.358-.3a1.905 1.905 0 0 1 1.195-.278c.055.007.11.021.166.042l-.052.83a1.495 1.495 0 0 0-.436-.063c-.499 0-.86.163-1.086.488-.225.326-.337.772-.337 1.34v2.394h-.81v-3.75zM179.393 68.667c0 .224.007.435.021.63.014.197.02.375.02.536h-.768c0-.133-.003-.266-.01-.399a7.882 7.882 0 0 1-.01-.41h-.022a1.419 1.419 0 0 1-.233.347c-.1.112-.22.212-.359.3a1.905 1.905 0 0 1-1.028.288c-.319 0-.594-.049-.826-.147a1.55 1.55 0 0 1-.576-.41 1.665 1.665 0 0 1-.338-.635 2.89 2.89 0 0 1-.109-.814v-3.035h.81v2.951c0 .413.09.739.27.977.18.238.46.357.842.357.263 0 .49-.045.68-.136.19-.092.346-.221.468-.39.12-.167.21-.367.27-.598.058-.23.088-.486.088-.767v-2.394h.81v3.75zM185.538 66.147a1.645 1.645 0 0 0-.561-.457 1.541 1.541 0 0 0-.665-.142c-.27 0-.509.047-.717.142-.207.094-.379.226-.514.394a1.764 1.764 0 0 0-.306.583c-.07.22-.104.456-.104.708 0 .253.04.489.12.71.079.22.19.414.332.582a1.503 1.503 0 0 0 1.189.536c.533 0 .945-.203 1.236-.61l.603.579a2.114 2.114 0 0 1-.831.598c-.319.126-.655.19-1.008.19-.374 0-.717-.064-1.028-.19a2.223 2.223 0 0 1-.795-.535 2.47 2.47 0 0 1-.509-.82 2.874 2.874 0 0 1-.182-1.04c0-.37.06-.714.182-1.029a2.347 2.347 0 0 1 1.309-1.36c.308-.13.65-.194 1.023-.194.36 0 .701.063 1.023.189.322.126.604.322.847.588l-.644.578zM190.893 65.611h-1.434v2.458c0 .16.004.31.01.446a.933.933 0 0 0 .084.357.563.563 0 0 0 .218.242c.097.06.236.089.416.089a1.656 1.656 0 0 0 .716-.168l.032.746a1.832 1.832 0 0 1-.463.136 2.97 2.97 0 0 1-.483.042c-.29 0-.523-.038-.696-.115a.947.947 0 0 1-.405-.326 1.22 1.22 0 0 1-.192-.52 4.633 4.633 0 0 1-.047-.688v-2.699h-1.06v-.693h1.06V63.52h.81v1.397h1.434v.693zM197.276 68.667c0 .224.007.435.021.63.014.197.021.375.021.536h-.769c0-.133-.003-.266-.01-.399a7.882 7.882 0 0 1-.01-.41h-.021a1.419 1.419 0 0 1-.234.347c-.1.112-.22.212-.358.3a1.905 1.905 0 0 1-1.029.288c-.318 0-.594-.049-.826-.147a1.55 1.55 0 0 1-.576-.41 1.665 1.665 0 0 1-.338-.635 2.89 2.89 0 0 1-.109-.814v-3.035h.81v2.951c0 .413.09.739.27.977.18.238.461.357.842.357.263 0 .49-.045.68-.136.19-.092.347-.221.468-.39.121-.167.211-.367.27-.598.059-.23.088-.486.088-.767v-2.394h.81v3.75zM199.962 66.084c0-.224-.007-.435-.02-.63a7.657 7.657 0 0 1-.022-.536h.77c0 .133.003.266.01.399.006.133.01.27.01.41h.02c.056-.12.134-.235.234-.347.1-.112.22-.212.359-.3a1.905 1.905 0 0 1 1.194-.278c.056.007.111.021.167.042l-.052.83a1.495 1.495 0 0 0-.437-.063c-.498 0-.86.163-1.085.488-.225.326-.338.772-.338 1.34v2.394h-.81v-3.75zM209.109 68.94c-.291.379-.61.643-.956.793a3 3 0 0 1-1.205.226c-.38 0-.724-.068-1.028-.205a2.317 2.317 0 0 1-.774-.551 2.423 2.423 0 0 1-.488-.82 2.935 2.935 0 0 1-.172-1.008c0-.378.062-.726.187-1.045a2.333 2.333 0 0 1 1.309-1.35c.305-.125.637-.188.997-.188.34 0 .651.057.935.173.284.116.528.284.732.504.205.22.362.49.473.809a3.3 3.3 0 0 1 .166 1.087v.263h-3.926c.014.21.064.41.15.603.087.193.2.361.338.505.138.143.301.257.488.341.187.084.391.126.613.126.353 0 .651-.063.893-.189.243-.126.46-.312.655-.557l.613.483zm-.696-2.006c-.014-.42-.15-.756-.405-1.008-.257-.252-.61-.378-1.06-.378-.45 0-.814.126-1.09.378-.278.252-.444.588-.5 1.008h3.055z"/>
            </g>
        </g>
    </g>
</svg>
